<?xml version="1.0" encoding="utf-8"?>
<svg xmlns:cc="http://creativecommons.org/ns#" xmlns:dc="http://purl.org/dc/elements/1.1/" xmlns:inkscape="http://www.inkscape.org/namespaces/inkscape" xmlns:rdf="http://www.w3.org/1999/02/22-rdf-syntax-ns#" xmlns:sodipodi="http://sodipodi.sourceforge.net/DTD/sodipodi-0.dtd" xmlns:svg="http://www.w3.org/2000/svg" xmlns="http://www.w3.org/2000/svg" xmlns:xlink="http://www.w3.org/1999/xlink" version="1.1" id="Layer_1" inkscape:version="0.91 r13725" sodipodi:docname="kibana.svg" x="0px" y="0px" viewBox="0 0 141.4 51" style="enable-background:new 0 0 141.4 51;" xml:space="preserve">
<style type="text/css">
	.st0{fill:#FFFFFF;fill-opacity:0.9253;}
	.st1{opacity:0.7;fill:#FFFFFF;}
	.st2{opacity:0.5;fill:#FFFFFF;}
	.st3{fill:#FFFFFF;}
</style>
<sodipodi:namedview bordercolor="#666666" borderopacity="1" gridtolerance="10" guidetolerance="10" id="namedview29" inkscape:current-layer="Layer_1" inkscape:cx="70.684998" inkscape:cy="25.5" inkscape:pageopacity="1" inkscape:pageshadow="2" inkscape:window-height="1079" inkscape:window-maximized="0" inkscape:window-width="1796" inkscape:window-x="349" inkscape:window-y="210" inkscape:zoom="2.0725756" objecttolerance="10" pagecolor="#515151" showgrid="false">
</sodipodi:namedview>
<title id="title7">Kibana-Full-Logo</title>
<g id="text4159" transform="translate(0,-13.509761)">
    <path id="path4891" inkscape:connector-curvature="0" class="st0" d="M53.3,50.5v-6.7l2.1-0.2l4,7h4.1l-5-8.8l4.8-7.7h-4l-3.9,6.4   l-2,0.2V27.1h-3.6v23.4C49.7,50.5,53.3,50.5,53.3,50.5z"/>
    <path id="path4895" inkscape:connector-curvature="0" class="st0" d="M82,33.7c-1.9,0-4.1,1-4.1,1v-7.5h-3.6v23.4   c0,0,4.3,0.4,6,0.4c5.9,0,8.1-2,8.1-8.9C88.4,35.9,86.5,33.7,82,33.7z M80.3,47.7c-0.7,0-2.5-0.1-2.5-0.1v-10c0,0,1.9-0.7,3.7-0.7   c2.2,0,3.2,1.5,3.2,5.2C84.7,46.1,84,47.7,80.3,47.7z"/>
    <path id="path4899" inkscape:connector-curvature="0" class="st0" d="M112.3,50.5V37.7c0,0,1.8-0.9,3.7-0.9c2.5,0,2.9,1.6,2.9,4.9   v8.8h3.6v-8.9c0-5.4-1.1-8-5.7-8c-2.1,0-4.6,1.4-4.6,1.4v-1h-3.6v16.5C108.7,50.5,112.3,50.5,112.3,50.5z"/>
</g>
<g>
    <path class="st1" d="M19.4,23.8L39.3,0H0v19.1c0.2,0,0.5,0,0.7,0C7.5,19.1,13.9,20.8,19.4,23.8z"/>
    <path class="st1" d="M24.5,27.1c0.2,0.2,0.4,0.3,0.5,0.4C24.9,27.4,24.7,27.3,24.5,27.1z"/>
    <path class="st2" d="M22.8,25.9c-1.4-1-3.4-2.1-3.4-2.1c1.2,0.7,2.4,1.4,3.6,2.2C22.9,26,22.9,26,22.8,25.9z"/>
    <path class="st2" d="M25.1,27.6c-0.2-0.1-0.3-0.3-0.5-0.4c-0.4-0.3-0.8-0.6-1.2-0.9c-0.1-0.1-0.2-0.1-0.3-0.2   c-1.1-0.8-2.3-1.5-3.6-2.2L0,47.3V51h7l18.9-22.8C25.6,28,25.3,27.8,25.1,27.6z"/>
</g>
</svg>
